<!-- Generated by IcoMoon.io -->
<svg version="1.1" xmlns="http://www.w3.org/2000/svg" width="34" height="32" viewBox="0 0 34 32">
<title>airports-websites</title>
<path d="M7.919 8.567h-3.334l0.973 4.77h2.362z"></path>
<path d="M11.485 13.337l0.926-4.77h-3.288v4.77z"></path>
<path d="M0 8.567l0.973 4.77h3.334l-0.973-4.77z"></path>
<path d="M13.383 3.751h-4.261v-3.751h-1.204v3.751h-4.307l0.741 3.566h8.336z"></path>
<path d="M31.676 2.686l-7.826 3.612-1.158-1.25-1.204 0.556 1.482 3.195 5.418-2.501 1.065 4.585 1.482-0.695 0.232-5.233 3.056-1.389c-0.417-0.926-1.575-1.343-2.547-0.88 0 0 0 0 0 0z"></path>
<path d="M29.638 2.732l-3.566-2.732-1.482 0.695 2.593 3.149z"></path>
<path d="M10.281 14.541h-3.427v17.412h25.1l2.269-11.253h-23.942v-6.159zM28.758 25.146h3.334l-0.973 4.77h-3.334l0.973-4.77zM24.174 25.146h3.334l-0.973 4.77h-3.334l0.973-4.77zM19.589 25.146h3.334l-0.973 4.77h-3.334l0.973-4.77zM14.958 25.146h3.334l-0.973 4.77h-3.288l0.926-4.77zM10.327 25.146h3.334l-0.973 4.77h-3.334l0.973-4.77z"></path>
</svg>
