<!-- Generated by IcoMoon.io -->
<svg version="1.1" xmlns="http://www.w3.org/2000/svg" width="24" height="32" viewBox="0 0 24 32">
<title>airport</title>
<path d="M11.414 22.477v1.050h-1.33l-0.070-1.050h1.4zM21.357 29.129h-10.923l-0.28-4.481h9.803c0.28 0 0.49-0.21 0.49-0.49v0-2.101c0-0.28-0.21-0.49-0.49-0.49v0h-10.013l-0.070-0.98h11.414c0.070 0 0.070 0.070 0.070 0.070v8.473zM17.786 22.477h1.61v1.050h-1.611v-1.050zM15.055 22.477h1.751v1.050h-1.681v-1.050zM12.464 22.477h1.611v1.050h-1.611v-1.050zM2.031 8.963h8.333v1.47c0 0.84-0.7 1.54-1.54 1.54v0c-0.14 0-0.28 0.070-0.35 0.14v0c-0.070 0.070-0.14 0.21-0.14 0.35l1.12 16.525h-6.232l1.050-16.385c0-0.14-0.070-0.28-0.14-0.35-0.070-0.14-0.21-0.14-0.42-0.14-0.98 0-1.751-0.77-1.751-1.751 0 0 0 0 0 0l0.070-1.4zM23.177 30.249v0.7h-22.127v-0.7c0-0.070 0.070-0.070 0.070-0.070v0h1.19c0.070 0 0.070 0 0.14 0s0.070 0 0.14 0h20.516c0.070-0.070 0.070 0 0.070 0.070v0zM11.414 7.982h-10.363v-0.84h10.363v0.84zM2.101 5.182l-0.84-2.521h2.451l0.42 2.521h-2.031zM7.772 2.591l-0.35 2.521h-2.241l-0.42-2.521h3.011zM8.473 5.112l0.35-2.521h2.381l-0.84 2.521h-1.891zM1.611 1.611l0.42-0.56h8.473l0.42 0.56h-9.313zM24.228 30.249c0-0.63-0.49-1.12-1.12-1.12h-0.7v-8.543c0-0.63-0.49-1.12-1.12-1.12h-11.484l-0.42-6.442c1.19-0.28 2.031-1.33 2.031-2.521v-1.54h0.28c0.42 0 0.77-0.35 0.77-0.77v0-1.33c0-0.42-0.35-0.77-0.77-0.77v0h-0.28v-0.42c0-0.070 0-0.14 0-0.14l0.91-2.731c0.14-0.42 0.070-0.91-0.21-1.26l-0.84-1.12c-0.14-0.28-0.35-0.42-0.63-0.42h-8.753c-0.28 0-0.49 0.14-0.63 0.28l-0.84 1.12c-0.28 0.42-0.35 0.91-0.21 1.33l0.84 2.661c0 0.070-0.070 0.14-0.070 0.28v0.49h-0.21c-0.42-0.070-0.77 0.28-0.77 0.7v0 1.33c0 0.42 0.35 0.77 0.77 0.77h0.21v1.26c0 1.33 0.91 2.451 2.241 2.731l-1.12 16.175h-0.98c-0.56 0-1.050 0.49-1.050 1.12v1.050c0 0.42 0.28 0.7 0.7 0.7h22.827c0.42 0 0.7-0.28 0.7-0.7l-0.070-1.050z"></path>
</svg>
