<!-- Generated by IcoMoon.io -->
<svg version="1.1" xmlns="http://www.w3.org/2000/svg" width="32" height="32" viewBox="0 0 32 32">
<title>bank</title>
<path d="M2.282 13.246h0.695c0 0.050 0 0.099 0 0.099v13.991h-0.496c-0.496-0.050-0.943 0.347-0.943 0.843-0.050 0.496 0.347 0.943 0.843 0.943 0.050 0 0.099 0 0.149 0h26.443c0.496-0.050 0.843-0.447 0.843-0.943-0.050-0.447-0.397-0.794-0.843-0.843h-0.496v-13.991c0-0.050 0-0.099 0-0.099h0.744c0.843 0 1.538-0.695 1.538-1.538 0-0.496-0.248-0.943-0.645-1.24l-13.842-10.27c-0.298-0.248-0.744-0.248-1.042 0l-13.842 10.22c-0.695 0.496-0.843 1.488-0.298 2.183 0.248 0.397 0.744 0.595 1.191 0.645v0zM16.521 27.336h-1.588v-13.991c0-0.050 0-0.099 0-0.099h1.637c0 0.050 0 0.099 0 0.099l-0.050 13.991zM9.774 27.336h-1.588v-13.991c0-0.050 0-0.099 0-0.099h1.637c0 0.050 0 0.099 0 0.099l-0.050 13.991zM4.812 27.336v-13.098h1.588v13.098h-1.588zM11.56 27.336v-13.098h1.588v13.098h-1.588zM18.307 27.336v-13.098h1.588v13.098h-1.588zM25.104 27.336v-13.098h1.588v13.098h-1.588zM23.268 13.346v13.991h-1.588v-13.991c0-0.050 0-0.099 0-0.099h1.637c0 0 0 0.050-0.050 0.099v0zM15.727 2.034l12.75 9.426h-25.501l12.75-9.426z"></path>
<path d="M30.611 30.214h-29.767c-0.496 0.050-0.843 0.447-0.843 0.943 0.050 0.447 0.397 0.794 0.843 0.843h29.817c0.496 0.050 0.943-0.347 0.943-0.843 0.050-0.496-0.347-0.943-0.843-0.943-0.050 0-0.099 0-0.149 0z"></path>
</svg>
