<!-- Generated by IcoMoon.io -->
<svg version="1.1" xmlns="http://www.w3.org/2000/svg" width="31" height="32" viewBox="0 0 31 32">
<title>bussiness-lounge</title>
<path d="M27.191 13.873c-0.308 0-0.617 0.062-0.925 0.123 0 0-0.062-1.11-1.048-1.233-0.678-0.062-1.295 0.37-1.356 1.048 0 0 0 0 0 0l-0.37 4.254c0 0.062 0 0.062 0 0.123 0 0.123-0.123 0.247-0.247 0.247 0 0-0.062 0-0.062 0-5.118-1.171-10.482-1.171-15.599 0-0.062 0-0.123 0-0.185-0.062s-0.062-0.123-0.062-0.185v-0.123l-1.048-11.283c-0.123-1.233 0.802-2.405 2.035-2.59 1.171-0.185 2.651-0.37 4.131-0.493v0c0 0 1.356-0.123 1.295-1.233s-1.418-1.11-1.541-1.11c-1.541 0.123-3.021 0.308-4.254 0.493-2.528 0.37-4.316 2.651-4.069 5.179v0l0.617 6.967c-0.308-0.062-0.617-0.123-0.925-0.123-1.973 0-3.638 1.603-3.638 3.576v0c0.062 5.118 3.268 8.385 4.686 9.68l-0.986 3.391c-0.185 0.617 0.185 1.295 0.802 1.48 0.123 0.062 0.247 0.062 0.308 0.062 0.555 0 0.987-0.37 1.171-0.863l0.925-3.268h16.956l0.925 3.268c0.185 0.493 0.617 0.863 1.171 0.863 0.123 0 0.247 0 0.308-0.062 0.617-0.185 0.986-0.863 0.802-1.48l-1.233-4.131c-0.185-0.493-0.617-0.863-1.171-0.863h-18.127c-0.74-0.555-1.356-1.233-1.911-1.973-1.356-1.788-2.096-3.884-2.096-6.042 0-0.678 0.555-1.233 1.171-1.233 0.678 0 1.233 0.555 1.233 1.171 0 0 0 0 0 0 0 0.062 0 0.123 0 0.123l0.062 0.802c0.062 1.48 1.295 2.59 2.713 2.59 0.123 0 0.247 0 0.432-0.062 4.809-1.11 9.865-1.11 14.674 0 1.418 0.247 2.836-0.678 3.083-2.096 0-0.123 0.062-0.247 0.062-0.432l0.062-0.678c0-0.062 0-0.123 0-0.123 0.123-0.678 0.802-1.11 1.48-0.925 0.493 0.123 0.863 0.493 0.925 0.925 0 1.48-0.37 2.96-1.048 4.254-0.308 0.617-0.062 1.295 0.493 1.603s1.295 0.062 1.603-0.493c0 0 0 0 0 0 0.863-1.665 1.295-3.514 1.295-5.364 0.123-2.035-1.48-3.638-3.514-3.699z"></path>
<path d="M19.422 11.098c0-0.062 0-0.123 0-0.123 0-0.986 0-1.911 0-2.898 0-0.123-0.062-0.185-0.123-0.185 0 0 0 0 0 0-0.617-0.123-1.171-0.37-1.726-0.678-0.617-0.37-1.11-0.987-1.233-1.726-0.247-1.233 0.308-2.466 1.418-3.083 0.493-0.308 0.986-0.493 1.541-0.555 0.062 0 0.123-0.062 0.123-0.123 0-0.308 0-0.617 0-0.925 0.062-0.37 0.308-0.678 0.678-0.678 0.37-0.062 0.678 0.123 0.863 0.432 0.062 0.185 0.123 0.308 0.123 0.493s0 0.432 0 0.617c0 0.123 0.062 0.185 0.185 0.185 0.432 0.062 0.802 0.123 1.171 0.308 0.863 0.37 1.541 1.048 1.911 1.973 0.185 0.308 0.123 0.678-0.062 0.987-0.308 0.37-0.802 0.432-1.171 0.123-0.123-0.062-0.185-0.185-0.247-0.308-0.062-0.185-0.062-0.247-0.062-0.308-0.123-0.432-0.432-0.802-0.863-0.925-0.247-0.123-0.493-0.185-0.802-0.247 0 0.062 0 0.123 0 0.123 0 0.925 0 1.85 0 2.775 0 0.062 0.062 0.185 0.123 0.185 0 0 0 0 0 0 0.678 0.123 1.295 0.37 1.85 0.678 0.432 0.247 0.74 0.555 0.986 0.925 0.185 0.308 0.37 0.678 0.37 1.048 0.062 0.308 0.062 0.617 0 0.863-0.062 0.308-0.123 0.617-0.247 0.863-0.432 0.863-1.171 1.48-2.035 1.726-0.308 0.062-0.678 0.185-0.986 0.185-0.123 0-0.123 0.062-0.123 0.123 0 0.308 0 0.555 0 0.863-0.062 0.432-0.37 0.74-0.802 0.74s-0.802-0.308-0.863-0.74c0-0.308 0-0.617 0-0.925 0-0.123-0.062-0.185-0.185-0.185-0.74-0.062-1.418-0.432-1.973-0.986-0.493-0.493-0.863-1.171-1.048-1.85-0.062-0.432 0.247-0.863 0.678-0.925 0 0 0 0 0.062 0 0.432-0.062 0.802 0.185 0.925 0.617 0.185 0.678 0.74 1.233 1.418 1.418l0.123 0.123zM21.148 9.742v1.356c0 0.062 0 0.185 0.123 0.123 0.493-0.062 0.986-0.247 1.356-0.555 0.493-0.432 0.555-1.233 0.062-1.726-0.123-0.123-0.185-0.185-0.308-0.247-0.308-0.123-0.678-0.247-0.986-0.37-0.185-0.062-0.185-0.062-0.185 0.123l-0.062 1.295zM19.484 6.104c0 0 0-0.062 0-0.062v-2.466c0-0.123-0.062-0.123-0.123-0.123-0.308 0.062-0.617 0.185-0.863 0.37-0.185 0.123-0.308 0.308-0.432 0.493-0.247 0.432-0.123 1.048 0.308 1.356 0.308 0.185 0.678 0.37 0.986 0.432h0.123z"></path>
</svg>
