<!-- Generated by IcoMoon.io -->
<svg version="1.1" xmlns="http://www.w3.org/2000/svg" width="43" height="32" viewBox="0 0 43 32">
<title>fast-track</title>
<path d="M16 32c-3.621 0-7.177-1.251-10.008-3.556-0.593-0.461-0.658-1.317-0.198-1.844s1.317-0.658 1.844-0.198v0c2.37 1.909 5.333 2.963 8.362 2.963 7.375 0 13.366-5.992 13.366-13.3 0-7.375-5.992-13.366-13.3-13.366-7.44 0-13.432 5.926-13.432 13.3 0 1.712 0.329 3.358 0.922 4.938 0.263 0.658-0.066 1.449-0.724 1.712s-1.449-0.066-1.712-0.724c-3.292-8.23 0.724-17.514 8.955-20.807s17.514 0.724 20.807 8.955c3.292 8.23-0.724 17.514-8.955 20.807-1.844 0.724-3.885 1.119-5.926 1.119v0z"></path>
<path d="M21.070 21.794c-0.263 0-0.593-0.066-0.79-0.263l-5.202-3.885c-0.329-0.263-0.527-0.658-0.527-1.053v-9.877c0-0.724 0.593-1.317 1.317-1.317s1.317 0.593 1.317 1.317v9.218l4.675 3.49c0.593 0.461 0.724 1.251 0.263 1.844-0.263 0.329-0.658 0.527-1.053 0.527v0z"></path>
<path d="M41.35 18.041h-5.992c-0.724 0-1.317-0.593-1.317-1.317s0.593-1.317 1.317-1.317h5.992c0.724 0 1.317 0.593 1.317 1.317s-0.593 1.317-1.317 1.317z"></path>
<path d="M39.045 12.708h-4.741c-0.724 0-1.317-0.593-1.317-1.317s0.593-1.317 1.317-1.317h4.741c0.724 0 1.317 0.593 1.317 1.317s-0.593 1.317-1.317 1.317z"></path>
<path d="M36.938 23.111h-3.292c-0.724 0-1.317-0.593-1.317-1.317s0.593-1.317 1.317-1.317h3.292c0.724 0 1.317 0.593 1.317 1.317s-0.593 1.317-1.317 1.317z"></path>
</svg>
