<!-- Generated by IcoMoon.io -->
<svg version="1.1" xmlns="http://www.w3.org/2000/svg" width="32" height="32" viewBox="0 0 32 32">
<title>home</title>
<path d="M32 13.874c0-0.783-0.448-1.455-1.007-1.902l-2.797-2.35v-6.713c0-0.559-0.448-0.895-0.895-0.895 0 0 0 0 0 0h-3.804c-0.559 0-0.895 0.448-0.895 0.895 0 0 0 0 0 0v1.902l-4.699-4.14c-1.007-0.895-2.573-0.895-3.692 0l-13.203 11.189c-1.231 1.007-1.343 2.797-0.336 3.916 0.783 0.895 2.014 1.231 3.133 0.783v14.322c0 0.559 0.336 0.895 0.895 0.895 0 0 0 0 0 0h22.601c0.559 0 0.895-0.448 0.895-0.895 0 0 0 0 0 0v-14.21c1.455 0.559 3.021-0.224 3.58-1.678 0.112-0.336 0.224-0.783 0.224-1.119zM24.503 3.804h1.902v4.252l-1.902-1.566v-2.685zM19.804 30.098h-7.608v-7.497h7.608v7.497zM26.406 30.098h-4.699v-8.392c0-0.559-0.448-0.895-0.895-0.895h-9.622c-0.559 0-0.895 0.448-0.895 0.895v8.392h-4.699v-14.769l10.406-8.839 10.294 8.839 0.112 14.769zM29.874 14.657c-0.336 0.448-0.895 0.448-1.343 0.112l-11.86-10.182c-0.336-0.336-0.895-0.336-1.231 0l-11.972 10.182c-0.448 0.224-1.007 0.112-1.231-0.336-0.224-0.336-0.112-0.783 0.112-1.119l13.203-11.189c0.336-0.336 0.895-0.336 1.231 0l13.091 11.189c0.336 0.336 0.336 1.007 0 1.343v0z"></path>
<path d="M18.909 11.189h-5.706c-0.559 0-0.895 0.448-0.895 0.895 0 0 0 0 0 0v5.594c0 0.559 0.448 0.895 0.895 0.895 0 0 0 0 0 0h5.706c0.559 0 0.895-0.448 0.895-0.895v-5.594c0-0.448-0.448-0.895-0.895-0.895v0zM17.902 16.783h-3.916v-3.692h3.916v3.692z"></path>
<path d="M17.902 25.399c0 0.559-0.448 0.895-0.895 0.895s-0.895-0.448-0.895-0.895 0.448-0.895 0.895-0.895c0 0 0 0 0 0 0.448 0 0.895 0.336 0.895 0.895z"></path>
</svg>
