<!-- Generated by IcoMoon.io -->
<svg version="1.1" xmlns="http://www.w3.org/2000/svg" width="32" height="32" viewBox="0 0 32 32">
<title>hotel</title>
<path d="M29.004 0h-5.034v2.037h5.034c0.599 0 0.959 0.479 0.959 0.959v26.008c0 0.599-0.479 0.959-0.959 0.959h-26.008c-0.599 0-0.959-0.479-0.959-0.959v-26.008c0-0.599 0.36-0.959 0.959-0.959h11.026v-2.037h-11.026c-1.678 0-2.996 1.438-2.996 2.996v26.008c0 1.678 1.318 2.996 2.996 2.996h26.008c1.678 0 2.996-1.318 2.996-2.996v0-26.008c0-1.678-1.318-2.996-2.996-2.996v0z"></path>
<path d="M5.992 19.056v-2.037h20.015v2.037h-20.015zM5.992 13.064h2.996c1.079 0 2.037 0.839 2.037 2.037 0 0 0 0 0 0h-5.034v-2.037zM28.045 25.049v-11.985h-2.037v2.037h-12.944c0-2.157-1.798-3.955-3.955-3.955h-3.116v-4.075h-2.037v17.978h2.037v-3.955h20.015v3.955h2.037z"></path>
<path d="M16.060 0h1.918v2.037h-1.918v-2.037z"></path>
<path d="M20.015 0h2.037v2.037h-2.037v-2.037z"></path>
</svg>
