<!-- Generator: Adobe Illustrator 19.0.0, SVG Export Plug-In  -->
<svg version="1.1"
	 xmlns="http://www.w3.org/2000/svg" xmlns:xlink="http://www.w3.org/1999/xlink" xmlns:a="http://ns.adobe.com/AdobeSVGViewerExtensions/3.0/"
	 x="0px" y="0px" width="249.9px" height="56.7px" viewBox="0 0 249.9 56.7" style="enable-background:new 0 0 249.9 56.7;"
	 xml:space="preserve">
<style type="text/css">
	.st0{fill:#FFFFFF;}
	.st1{fill:#DD671D;}
</style>
<defs>
</defs>
<path class="st0" d="M84.1,7.2h1.1l-2.7,15.3h0.1c0.8-1.8,2.2-3.3,3.9-4.4c1.7-1.1,3.7-1.7,5.7-1.7c2.3-0.2,4.5,0.7,6,2.4
	c1.3,1.6,1.8,3.8,1.3,6.5l-2.7,15.5h-1.1l2.7-15.5c0.4-2.4,0-4.4-1.2-5.8c-1.4-1.5-3.3-2.2-5.3-2.1c-2.4,0-4.7,0.9-6.5,2.5
	c-1.9,1.7-3.1,4-3.5,6.5l-2.5,14.4h-1.1L84.1,7.2z"/>
<path class="st0" d="M106.4,16.8h1.1l-4.2,24h-1.1L106.4,16.8z M107.4,10c-0.2-0.2-0.2-0.5-0.2-0.8c0.1-0.3,0.2-0.6,0.5-0.8
	c0.2-0.2,0.5-0.3,0.8-0.3c0.3,0,0.5,0.1,0.7,0.3c0.2,0.2,0.2,0.5,0.2,0.8c-0.1,0.3-0.2,0.6-0.5,0.8c-0.2,0.2-0.5,0.3-0.8,0.3
	C107.8,10.4,107.5,10.3,107.4,10L107.4,10z"/>
<path class="st0" d="M110.9,47.3c-1.4-0.8-2.2-2.2-2.3-3.8h1.2c0.1,1.3,0.9,2.4,2.1,3c1.6,0.9,3.4,1.3,5.2,1.2
	c2.3,0.1,4.6-0.6,6.6-1.8c1.8-1.1,3-2.9,3.3-5l1.2-7.1l0,0c-0.9,2.1-2.3,3.9-4.1,5.2c-1.9,1.4-4.1,2.2-6.5,2.2
	c-2.7,0.2-5.3-1.2-6.7-3.4c-1.5-2.3-1.9-5.3-1.2-8.9c0.5-3.4,2-6.5,4.4-8.9c2-2.2,4.9-3.4,7.9-3.4c2.1-0.1,4.2,0.7,5.7,2.2
	c1.4,1.4,2.3,3.3,2.3,5.3h0l1.3-7.2h1l-4.2,24c-0.4,2.4-1.8,4.5-3.8,5.8c-2.2,1.4-4.8,2.2-7.5,2.1C114.8,48.9,112.7,48.4,110.9,47.3
	z M125.1,37c2.1-2.2,3.5-5.1,4-8.2c0.6-3.3,0.2-6.1-1.1-8.2c-1.3-2.1-3.7-3.3-6.1-3.2c-2.7,0-5.3,1.1-7.1,3.1
	c-2.1,2.3-3.5,5.1-4,8.2c-0.6,3.3-0.2,6.1,1.1,8.1c1.3,2.1,3.6,3.3,6,3.1C120.6,40.2,123.2,39,125.1,37L125.1,37z"/>
<path class="st0" d="M139.7,7.2h1.1l-2.7,15.3h0c0.8-1.8,2.2-3.3,3.9-4.4c1.7-1.1,3.7-1.7,5.7-1.7c2.3-0.2,4.5,0.7,6,2.4
	c1.3,1.6,1.8,3.8,1.3,6.5l-2.7,15.5h-1.1l2.7-15.5c0.4-2.4,0-4.4-1.2-5.8c-1.4-1.5-3.3-2.2-5.3-2.1c-2.4,0-4.7,0.9-6.5,2.5
	c-1.9,1.7-3.1,4-3.5,6.5l-2.5,14.4h-1.1L139.7,7.2z"/>
<path class="st0" d="M172.5,16.4c6.6,0,10.2,4.5,9.2,10.6l-0.9,5.2c-0.7,5.3-5.3,9.2-10.6,9.1c-1.5,0-3.1-0.3-4.4-1l-1.5,8.4
	c0,0.4-0.4,0.8-0.8,0.7h-5.3c-0.5,0-0.8-0.4-0.7-0.9l5.2-29.5c0.1-0.4,0.3-0.7,0.6-0.8C166.2,17,169.3,16.4,172.5,16.4z M174.8,26.5
	c0.5-3-0.5-4.1-2.9-4.1c-1,0-2.1,0.2-3,0.7l-2,11.6c0.9,0.6,1.9,0.9,2.9,0.9c2.3,0,3.8-1.4,4.2-4.2L174.8,26.5z"/>
<path class="st0" d="M192.2,41.4c-6.4,0-9.6-3.6-8.7-8.6c0.8-4.4,4.5-6.4,10.4-6.4c1.3,0,2.6,0.1,3.9,0.4l0.1-0.7
	c0.4-2.2-0.2-3.5-3.1-3.5c-1.9,0-3.7,0.3-5.5,1c-0.5,0.2-0.9,0.1-1-0.4l-1.4-3.8c-0.1-0.4-0.1-0.7,0.1-0.9c2.9-1.5,6.1-2.2,9.3-2.1
	c6.2,0,9.4,4.1,8.2,11l-2,11.6c0,0.4-0.3,0.7-0.7,0.9C198.6,40.8,195.4,41.4,192.2,41.4z M193,35.6c1.1,0,2.1-0.1,3.1-0.4l0.6-4
	c-1-0.2-1.9-0.3-2.9-0.3c-2.2,0-3.4,0.7-3.7,2.1C189.9,34.8,191,35.6,193,35.6z"/>
<path class="st0" d="M215.5,41.4c-3.4,0.1-6.7-1-9.3-3.1c-0.3-0.2-0.4-0.7-0.2-1c0,0,0.1-0.1,0.1-0.1l2.6-3.6c0.2-0.3,0.6-0.5,1-0.3
	c0,0,0.1,0,0.1,0.1c1.7,1.3,3.8,2,6,2c2.2,0,3.3-0.7,3.5-1.7c0.3-1.4-1.3-1.8-3.1-2.2c-4.5-0.9-8-3.6-7-8.5c1-4.6,4.8-6.6,10.3-6.6
	c2.8-0.1,5.6,0.7,8,2.1c0.3,0.1,0.5,0.5,0.3,0.9c0,0.1-0.1,0.2-0.2,0.2l-2.7,3.6c-0.2,0.4-0.7,0.5-1,0.3c0,0,0,0-0.1,0
	c-1.6-0.8-3.3-1.3-5.1-1.2c-1.7,0-2.7,0.4-2.9,1.5c-0.3,1.4,1.2,1.8,3.4,2.3c3.5,0.8,7.9,3,7,8.3C225.3,39.1,221.2,41.4,215.5,41.4z
	"/>
<path class="st0" d="M237.5,41.4c-3.4,0.1-6.7-1-9.3-3.1c-0.3-0.2-0.4-0.7-0.2-1c0,0,0.1-0.1,0.1-0.1l2.6-3.6c0.2-0.3,0.7-0.5,1-0.3
	c0,0,0.1,0,0.1,0.1c1.7,1.3,3.8,2,5.9,2c2.2,0,3.3-0.7,3.5-1.7c0.3-1.4-1.3-1.8-3.1-2.2c-4.5-0.9-8-3.6-7-8.5
	c1-4.6,4.8-6.6,10.3-6.6c2.8-0.1,5.6,0.7,8,2.1c0.3,0.2,0.5,0.6,0.3,0.9c0,0.1-0.1,0.1-0.1,0.2l-2.7,3.6c-0.2,0.4-0.7,0.5-1,0.3
	c0,0-0.1,0-0.1,0c-1.6-0.9-3.3-1.3-5.1-1.2c-1.7,0-2.8,0.4-2.9,1.5c-0.3,1.4,1.2,1.8,3.4,2.3c3.5,0.8,7.9,3,7,8.3
	C247.3,39.1,243.2,41.4,237.5,41.4z"/>
<path class="st0" d="M52,56.7H0L9.2,4.6C9.7,2,12,0,14.7,0H60c3.1,0,5.6,2.5,5.6,5.6c0,0.3,0,0.6-0.1,1l-8,45.5
	C57.1,54.8,54.7,56.7,52,56.7z"/>
<path class="st1" d="M49.8,14.4l-14.4,2.3l-13.6-2.3l-4.9,28l14.5-3l13.5,3L49.8,14.4z M30,38.3l-11.3,2.3L23,16.2L33.6,18L30,38.3z
	 M32.8,33.5l1.8-10.2l0.5-2.8l0.4-2.4l12.2-1.8l-4.2,24l-11.5-2.3l0.3-1.8L32.8,33.5z"/>
</svg>
