<!-- Generated by IcoMoon.io -->
<svg version="1.1" xmlns="http://www.w3.org/2000/svg" width="40" height="32" viewBox="0 0 40 32">
<title>plain</title>
<path d="M0.837 11.817c-0.418 0-0.837 0.418-0.837 0.837 0 4.183 3.451 7.634 7.634 7.634h28.654c2.301 0 4.183-1.882 4.183-4.183 0-0.209-0.105-0.418-0.209-0.627l-3.346-3.346c-0.209-0.209-0.418-0.209-0.627-0.209l-35.451-0.105zM7.634 18.51c-2.928 0-5.438-2.196-5.856-5.020h34.196l2.824 2.824c-0.209 1.255-1.255 2.196-2.51 2.196h-28.654z"></path>
<path d="M30.327 12.654v1.673c0 1.359 1.15 2.51 2.51 2.51h6.693v-1.673h-6.693c-0.418 0-0.837-0.418-0.837-0.837v-1.673h-1.673z"></path>
<path d="M15.163 19.346v11.817c0 0.418 0.418 0.837 0.837 0.837 0 0 0 0 0 0h4.183c0.314 0 0.627-0.209 0.732-0.523l5.020-11.817-1.569-0.627-4.706 11.294h-2.824v-10.98h-1.673z"></path>
<path d="M16 0c-0.418 0-0.837 0.314-0.837 0.837 0 0 0 0 0 0v11.817h1.673v-10.98h2.824l4.81 11.294 1.569-0.627-5.020-11.817c-0.105-0.314-0.418-0.523-0.837-0.523h-4.183z"></path>
<path d="M0.837 5.856c-0.418 0-0.837 0.418-0.837 0.941v5.856h1.778v-5.020h2.824l2.301 5.438 1.464-0.732-2.51-5.856c-0.105-0.314-0.418-0.523-0.837-0.523l-4.183-0.105z"></path>
<path d="M26.144 15.163h1.673v1.673h-1.673v-1.673z"></path>
<path d="M22.797 15.163h1.673v1.673h-1.673v-1.673z"></path>
<path d="M19.346 15.163h1.673v1.673h-1.673v-1.673z"></path>
<path d="M16 15.163h1.673v1.673h-1.673v-1.673z"></path>
<path d="M12.654 15.163h1.673v1.673h-1.673v-1.673z"></path>
<path d="M9.307 15.163h1.673v1.673h-1.673v-1.673z"></path>
</svg>
