<svg aria-hidden="true" style="position: absolute; width: 0; height: 0; overflow: hidden;" version="1.1" xmlns="http://www.w3.org/2000/svg" xmlns:xlink="http://www.w3.org/1999/xlink">
<defs>
<symbol id="icon-book" viewBox="0 0 37 32">
<title>book</title>
<path d="M36.881 0l-16.271 2.712-15.186-2.712-5.424 32 16.271-3.254 15.186 3.254 5.424-32zM14.644 27.119l-13.017 2.712 4.881-27.661 11.932 2.17-3.797 22.78zM17.898 21.695l2.169-11.39 0.542-3.254 0.542-2.712 13.559-2.17-4.881 27.119-13.017-2.169 0.542-2.169 0.542-3.254z"></path>
</symbol>
<symbol id="icon-hotel" viewBox="0 0 32 32">
<title>hotel</title>
<path d="M29.004 0h-5.034v2.037h5.034c0.599 0 0.959 0.479 0.959 0.959v26.008c0 0.599-0.479 0.959-0.959 0.959h-26.008c-0.599 0-0.959-0.479-0.959-0.959v-26.008c0-0.599 0.36-0.959 0.959-0.959h11.026v-2.037h-11.026c-1.678 0-2.996 1.438-2.996 2.996v26.008c0 1.678 1.318 2.996 2.996 2.996h26.008c1.678 0 2.996-1.318 2.996-2.996v0-26.008c0-1.678-1.318-2.996-2.996-2.996v0z"></path>
<path d="M5.992 19.056v-2.037h20.015v2.037h-20.015zM5.992 13.064h2.996c1.079 0 2.037 0.839 2.037 2.037 0 0 0 0 0 0h-5.034v-2.037zM28.045 25.049v-11.985h-2.037v2.037h-12.944c0-2.157-1.798-3.955-3.955-3.955h-3.116v-4.075h-2.037v17.978h2.037v-3.955h20.015v3.955h2.037z"></path>
<path d="M16.060 0h1.918v2.037h-1.918v-2.037z"></path>
<path d="M20.015 0h2.037v2.037h-2.037v-2.037z"></path>
</symbol>
<symbol id="icon-plain" viewBox="0 0 40 32">
<title>plain</title>
<path d="M0.837 11.817c-0.418 0-0.837 0.418-0.837 0.837 0 4.183 3.451 7.634 7.634 7.634h28.654c2.301 0 4.183-1.882 4.183-4.183 0-0.209-0.105-0.418-0.209-0.627l-3.346-3.346c-0.209-0.209-0.418-0.209-0.627-0.209l-35.451-0.105zM7.634 18.51c-2.928 0-5.438-2.196-5.856-5.020h34.196l2.824 2.824c-0.209 1.255-1.255 2.196-2.51 2.196h-28.654z"></path>
<path d="M30.327 12.654v1.673c0 1.359 1.15 2.51 2.51 2.51h6.693v-1.673h-6.693c-0.418 0-0.837-0.418-0.837-0.837v-1.673h-1.673z"></path>
<path d="M15.163 19.346v11.817c0 0.418 0.418 0.837 0.837 0.837 0 0 0 0 0 0h4.183c0.314 0 0.627-0.209 0.732-0.523l5.020-11.817-1.569-0.627-4.706 11.294h-2.824v-10.98h-1.673z"></path>
<path d="M16 0c-0.418 0-0.837 0.314-0.837 0.837 0 0 0 0 0 0v11.817h1.673v-10.98h2.824l4.81 11.294 1.569-0.627-5.020-11.817c-0.105-0.314-0.418-0.523-0.837-0.523h-4.183z"></path>
<path d="M0.837 5.856c-0.418 0-0.837 0.418-0.837 0.941v5.856h1.778v-5.020h2.824l2.301 5.438 1.464-0.732-2.51-5.856c-0.105-0.314-0.418-0.523-0.837-0.523l-4.183-0.105z"></path>
<path d="M26.144 15.163h1.673v1.673h-1.673v-1.673z"></path>
<path d="M22.797 15.163h1.673v1.673h-1.673v-1.673z"></path>
<path d="M19.346 15.163h1.673v1.673h-1.673v-1.673z"></path>
<path d="M16 15.163h1.673v1.673h-1.673v-1.673z"></path>
<path d="M12.654 15.163h1.673v1.673h-1.673v-1.673z"></path>
<path d="M9.307 15.163h1.673v1.673h-1.673v-1.673z"></path>
</symbol>
<symbol id="icon-airport" viewBox="0 0 24 32">
<title>airport</title>
<path d="M11.414 22.477v1.050h-1.33l-0.070-1.050h1.4zM21.357 29.129h-10.923l-0.28-4.481h9.803c0.28 0 0.49-0.21 0.49-0.49v0-2.101c0-0.28-0.21-0.49-0.49-0.49v0h-10.013l-0.070-0.98h11.414c0.070 0 0.070 0.070 0.070 0.070v8.473zM17.786 22.477h1.61v1.050h-1.611v-1.050zM15.055 22.477h1.751v1.050h-1.681v-1.050zM12.464 22.477h1.611v1.050h-1.611v-1.050zM2.031 8.963h8.333v1.47c0 0.84-0.7 1.54-1.54 1.54v0c-0.14 0-0.28 0.070-0.35 0.14v0c-0.070 0.070-0.14 0.21-0.14 0.35l1.12 16.525h-6.232l1.050-16.385c0-0.14-0.070-0.28-0.14-0.35-0.070-0.14-0.21-0.14-0.42-0.14-0.98 0-1.751-0.77-1.751-1.751 0 0 0 0 0 0l0.070-1.4zM23.177 30.249v0.7h-22.127v-0.7c0-0.070 0.070-0.070 0.070-0.070v0h1.19c0.070 0 0.070 0 0.14 0s0.070 0 0.14 0h20.516c0.070-0.070 0.070 0 0.070 0.070v0zM11.414 7.982h-10.363v-0.84h10.363v0.84zM2.101 5.182l-0.84-2.521h2.451l0.42 2.521h-2.031zM7.772 2.591l-0.35 2.521h-2.241l-0.42-2.521h3.011zM8.473 5.112l0.35-2.521h2.381l-0.84 2.521h-1.891zM1.611 1.611l0.42-0.56h8.473l0.42 0.56h-9.313zM24.228 30.249c0-0.63-0.49-1.12-1.12-1.12h-0.7v-8.543c0-0.63-0.49-1.12-1.12-1.12h-11.484l-0.42-6.442c1.19-0.28 2.031-1.33 2.031-2.521v-1.54h0.28c0.42 0 0.77-0.35 0.77-0.77v0-1.33c0-0.42-0.35-0.77-0.77-0.77v0h-0.28v-0.42c0-0.070 0-0.14 0-0.14l0.91-2.731c0.14-0.42 0.070-0.91-0.21-1.26l-0.84-1.12c-0.14-0.28-0.35-0.42-0.63-0.42h-8.753c-0.28 0-0.49 0.14-0.63 0.28l-0.84 1.12c-0.28 0.42-0.35 0.91-0.21 1.33l0.84 2.661c0 0.070-0.070 0.14-0.070 0.28v0.49h-0.21c-0.42-0.070-0.77 0.28-0.77 0.7v0 1.33c0 0.42 0.35 0.77 0.77 0.77h0.21v1.26c0 1.33 0.91 2.451 2.241 2.731l-1.12 16.175h-0.98c-0.56 0-1.050 0.49-1.050 1.12v1.050c0 0.42 0.28 0.7 0.7 0.7h22.827c0.42 0 0.7-0.28 0.7-0.7l-0.070-1.050z"></path>
</symbol>
<symbol id="icon-transfer" viewBox="0 0 73 32">
<title>transfer</title>
<path d="M57.722 22.076c-1.215 0-2.025 0.81-2.025 2.025s0.81 2.025 2.025 2.025 2.025-0.81 2.025-2.025-1.013-2.025-2.025-2.025zM15.797 22.076c-1.215 0-2.025 0.81-2.025 2.025s0.81 2.025 2.025 2.025 2.025-0.81 2.025-2.025-0.81-2.025-2.025-2.025zM3.038 15.392v-1.215c0-1.013 0.405-2.025 0.81-2.835h1.823v2.025c0 1.215-0.81 2.025-2.025 2.025h-0.608zM3.038 22.684v-4.456h0.608c2.835 0 5.063-2.228 5.063-4.861 0 0 0 0 0 0v-2.025h46.987l6.278 0.81c0.608 4.253 4.051 7.291 8.304 7.291v3.038h-4.861c-0.81-4.253-4.861-6.886-8.911-6.278-3.24 0.608-5.671 3.038-6.278 6.278h-26.734c-0.81-4.253-4.861-6.886-8.911-6.278-3.24 0.608-5.671 3.038-6.278 6.278l-5.266 0.203zM15.797 28.759c-2.633 0-4.658-2.025-4.658-4.658s2.025-4.658 4.658-4.658c2.633 0 4.658 2.025 4.658 4.658 0.203 2.633-2.025 4.658-4.658 4.658v0zM57.722 28.759c-2.633 0-4.658-2.025-4.658-4.658s2.025-4.658 4.658-4.658c2.633 0 4.658 2.025 4.658 4.658s-2.025 4.658-4.658 4.658zM65.013 12.759c2.025 0.405 3.848 1.823 4.658 3.848-2.228-0.203-4.051-1.62-4.658-3.848zM42.127 4.658l7.291 3.646h-13.165v-5.266c2.025 0 4.051 0.608 5.873 1.62v0zM33.215 3.038v5.468h-12.152l4.253-5.468h7.899zM20.051 4.051l0.81-0.405-3.646 4.658h-8.101l10.937-4.253zM5.063 7.089c-3.038 1.013-5.063 4.051-5.063 7.291v10.127c0 0.81 0.608 1.418 1.418 1.418h6.886c0.405 1.418 1.013 2.835 2.228 3.848 3.038 2.835 7.696 2.835 10.734 0 1.013-1.013 1.823-2.43 2.228-3.848h26.734c0.405 1.418 1.013 2.835 2.228 3.848 3.038 3.038 7.899 2.835 10.937-0.203 1.013-1.013 1.62-2.43 2.025-3.646h6.481c0.81 0 1.418-0.608 1.418-1.418v-5.671c0-4.658-3.443-8.506-7.899-9.114l-9.114-1.418-12.759-6.278c-2.835-1.418-5.873-2.025-8.911-2.025h-8.506c-2.43 0-4.861 0.405-7.291 1.418l-13.772 5.671zM57.722 22.278c-1.215 0-2.025 0.81-2.025 2.025s0.81 2.025 2.025 2.025 2.025-0.81 2.025-2.025-1.013-2.025-2.025-2.025zM57.722 22.278c-1.215 0-2.025 0.81-2.025 2.025s0.81 2.025 2.025 2.025 2.025-0.81 2.025-2.025-1.013-2.025-2.025-2.025z"></path>
<path d="M31.595 15.595h9.924c0.81 0 1.418 0.608 1.418 1.418s-0.608 1.418-1.418 1.418v0h-9.924c-0.81 0-1.418-0.608-1.418-1.418s0.608-1.418 1.418-1.418z"></path>
</symbol>
<symbol id="icon-home" viewBox="0 0 32 32">
<title>home</title>
<path d="M32 13.874c0-0.783-0.448-1.455-1.007-1.902l-2.797-2.35v-6.713c0-0.559-0.448-0.895-0.895-0.895 0 0 0 0 0 0h-3.804c-0.559 0-0.895 0.448-0.895 0.895 0 0 0 0 0 0v1.902l-4.699-4.14c-1.007-0.895-2.573-0.895-3.692 0l-13.203 11.189c-1.231 1.007-1.343 2.797-0.336 3.916 0.783 0.895 2.014 1.231 3.133 0.783v14.322c0 0.559 0.336 0.895 0.895 0.895 0 0 0 0 0 0h22.601c0.559 0 0.895-0.448 0.895-0.895 0 0 0 0 0 0v-14.21c1.455 0.559 3.021-0.224 3.58-1.678 0.112-0.336 0.224-0.783 0.224-1.119zM24.503 3.804h1.902v4.252l-1.902-1.566v-2.685zM19.804 30.098h-7.608v-7.497h7.608v7.497zM26.406 30.098h-4.699v-8.392c0-0.559-0.448-0.895-0.895-0.895h-9.622c-0.559 0-0.895 0.448-0.895 0.895v8.392h-4.699v-14.769l10.406-8.839 10.294 8.839 0.112 14.769zM29.874 14.657c-0.336 0.448-0.895 0.448-1.343 0.112l-11.86-10.182c-0.336-0.336-0.895-0.336-1.231 0l-11.972 10.182c-0.448 0.224-1.007 0.112-1.231-0.336-0.224-0.336-0.112-0.783 0.112-1.119l13.203-11.189c0.336-0.336 0.895-0.336 1.231 0l13.091 11.189c0.336 0.336 0.336 1.007 0 1.343v0z"></path>
<path d="M18.909 11.189h-5.706c-0.559 0-0.895 0.448-0.895 0.895 0 0 0 0 0 0v5.594c0 0.559 0.448 0.895 0.895 0.895 0 0 0 0 0 0h5.706c0.559 0 0.895-0.448 0.895-0.895v-5.594c0-0.448-0.448-0.895-0.895-0.895v0zM17.902 16.783h-3.916v-3.692h3.916v3.692z"></path>
<path d="M17.902 25.399c0 0.559-0.448 0.895-0.895 0.895s-0.895-0.448-0.895-0.895 0.448-0.895 0.895-0.895c0 0 0 0 0 0 0.448 0 0.895 0.336 0.895 0.895z"></path>
</symbol>
<symbol id="icon-bank" viewBox="0 0 32 32">
<title>bank</title>
<path d="M2.282 13.246h0.695c0 0.050 0 0.099 0 0.099v13.991h-0.496c-0.496-0.050-0.943 0.347-0.943 0.843-0.050 0.496 0.347 0.943 0.843 0.943 0.050 0 0.099 0 0.149 0h26.443c0.496-0.050 0.843-0.447 0.843-0.943-0.050-0.447-0.397-0.794-0.843-0.843h-0.496v-13.991c0-0.050 0-0.099 0-0.099h0.744c0.843 0 1.538-0.695 1.538-1.538 0-0.496-0.248-0.943-0.645-1.24l-13.842-10.27c-0.298-0.248-0.744-0.248-1.042 0l-13.842 10.22c-0.695 0.496-0.843 1.488-0.298 2.183 0.248 0.397 0.744 0.595 1.191 0.645v0zM16.521 27.336h-1.588v-13.991c0-0.050 0-0.099 0-0.099h1.637c0 0.050 0 0.099 0 0.099l-0.050 13.991zM9.774 27.336h-1.588v-13.991c0-0.050 0-0.099 0-0.099h1.637c0 0.050 0 0.099 0 0.099l-0.050 13.991zM4.812 27.336v-13.098h1.588v13.098h-1.588zM11.56 27.336v-13.098h1.588v13.098h-1.588zM18.307 27.336v-13.098h1.588v13.098h-1.588zM25.104 27.336v-13.098h1.588v13.098h-1.588zM23.268 13.346v13.991h-1.588v-13.991c0-0.050 0-0.099 0-0.099h1.637c0 0 0 0.050-0.050 0.099v0zM15.727 2.034l12.75 9.426h-25.501l12.75-9.426z"></path>
<path d="M30.611 30.214h-29.767c-0.496 0.050-0.843 0.447-0.843 0.943 0.050 0.447 0.397 0.794 0.843 0.843h29.817c0.496 0.050 0.943-0.347 0.943-0.843 0.050-0.496-0.347-0.943-0.843-0.943-0.050 0-0.099 0-0.149 0z"></path>
</symbol>
<symbol id="icon-tickets" viewBox="0 0 31 32">
<title>tickets</title>
<path d="M24.015 18.378c-0.411-1.996 0.528-3.993 2.349-4.932v0c-0.117-0.587-0.235-1.116-0.352-1.703-0.235-0.705-0.822-0.47-1.35-0.352l-3.699 0.822c-0.235 0.352-0.411 0.763-0.705 1.057-0.47 0.587-1.35 0.059-1.468-0.587v0l-15.266 3.347c-0.294 0.059-0.705 0.117-0.939 0.352-0.411 0.47 0.117 1.703 0.235 2.231v0c2.466 0.117 4.404 2.172 4.286 4.639-0.059 1.644-0.998 3.112-2.466 3.817v0l0.528 2.349 16.44-3.582c0.235-0.352 0.411-0.763 0.705-1.057 0.47-0.587 1.35-0.059 1.468 0.587v0l4.932-1.057-0.528-2.349c-2.055-0.176-3.758-1.585-4.169-3.582v0zM19.611 2.877c-0.587-0.763-1.879 0.646-2.29 0.998l-2.055 1.527c-0.059 0.411-0.117 0.822-0.176 1.233-0.176 0.763-1.174 0.587-1.585 0.117v0l-8.69 6.694 16.206-3.523c-1.174-1.292-1.468-3.229-0.763-4.815 0.117-0.294 0.47-0.646 0.352-0.939-0.059-0.117-0.176-0.235-0.294-0.352l-0.705-0.939zM31.354 25.894l-27.89 6.048-0.705-3.171c-0.294-1.057-0.528-2.172-0.705-3.288 0.822-0.176 1.468-0.176 2.055-0.822 0.528-0.528 0.763-1.292 0.646-2.055-0.176-0.763-0.705-1.35-1.468-1.585-0.822-0.294-1.409 0-2.172 0.117-0.176-1.116-0.47-2.231-0.822-3.288-0.352-1.116-0.528-2.349 0.059-3.347 0.411-0.646 0.939-1.174 1.585-1.585l15.677-12.154c0.411-0.411 0.998-0.705 1.585-0.763 0.939-0.059 1.703 0.822 2.29 1.585l1.409 1.82c0.176 0.235 0.294 0.47 0.352 0.705 0.117 0.646-0.528 1.174-0.881 1.761-0.587 1.116-0.117 2.466 0.998 2.995 0.176 0.059 0.294 0.117 0.47 0.176 0.646 0.059 1.292 0 1.938-0.117s1.292 0.059 1.82 0.47c0.235 0.352 0.411 0.763 0.47 1.174 0.352 1.527 0.646 2.995 0.939 4.521-1.292-0.176-2.466 0.705-2.701 1.938-0.176 1.292 0.705 2.466 1.938 2.701 0.587 0.117 1.174-0.059 1.644-0.352 0.528 2.172 0.998 4.345 1.468 6.517zM15.736 7.868c-0.47 0.352-0.587 1.057-0.235 1.585 0.352 0.47 1.057 0.587 1.585 0.235s0.587-1.057 0.235-1.585c0 0 0 0 0 0-0.352-0.528-1.057-0.646-1.585-0.235zM21.725 21.138c-1.468 0.294-0.881 2.584 0.587 2.172 0.587-0.176 0.881-0.822 0.705-1.409-0.176-0.528-0.705-0.822-1.292-0.763zM21.020 17.908c-1.468 0.294-0.881 2.584 0.587 2.172 0.587-0.176 0.881-0.822 0.705-1.409s-0.705-0.881-1.292-0.763zM21.666 15.442c0.294 1.468-1.996 1.879-2.172 0.411-0.059-0.587 0.411-1.174 0.998-1.233 0.528-0.059 0.998 0.294 1.174 0.822z"></path>
</symbol>
<symbol id="icon-airlines-websites" viewBox="0 0 32 32">
<title>airlines-websites</title>
<path d="M31.172 0.828c-1.103-1.034-2.897-1.034-4 0l-7.241 7.31-17.241-4-2.69 2.621 13.931 7.31-7.31 7.31-4.621-0.69-2 2 6 3.31 3.31 6 2-2-0.69-4.621 7.31-7.31 7.31 13.931 2.69-2.621-4-17.241 7.241-7.379c1.103-1.103 1.103-2.828 0-3.931z"></path>
</symbol>
<symbol id="icon-airports-websites" viewBox="0 0 34 32">
<title>airports-websites</title>
<path d="M7.919 8.567h-3.334l0.973 4.77h2.362z"></path>
<path d="M11.485 13.337l0.926-4.77h-3.288v4.77z"></path>
<path d="M0 8.567l0.973 4.77h3.334l-0.973-4.77z"></path>
<path d="M13.383 3.751h-4.261v-3.751h-1.204v3.751h-4.307l0.741 3.566h8.336z"></path>
<path d="M31.676 2.686l-7.826 3.612-1.158-1.25-1.204 0.556 1.482 3.195 5.418-2.501 1.065 4.585 1.482-0.695 0.232-5.233 3.056-1.389c-0.417-0.926-1.575-1.343-2.547-0.88 0 0 0 0 0 0z"></path>
<path d="M29.638 2.732l-3.566-2.732-1.482 0.695 2.593 3.149z"></path>
<path d="M10.281 14.541h-3.427v17.412h25.1l2.269-11.253h-23.942v-6.159zM28.758 25.146h3.334l-0.973 4.77h-3.334l0.973-4.77zM24.174 25.146h3.334l-0.973 4.77h-3.334l0.973-4.77zM19.589 25.146h3.334l-0.973 4.77h-3.334l0.973-4.77zM14.958 25.146h3.334l-0.973 4.77h-3.288l0.926-4.77zM10.327 25.146h3.334l-0.973 4.77h-3.334l0.973-4.77z"></path>
</symbol>
<symbol id="icon-vip-lounge" viewBox="0 0 35 32">
<title>vip-lounge</title>
<path d="M25.497 1.095c-0.515 0-0.966 0.451-0.966 0.966 0 0 0 0 0 0v7.92c0.064 0.515 0.515 0.966 1.095 0.901 0.515-0.064 0.901-0.451 0.901-0.901v-7.92c-0.064-0.515-0.451-0.966-1.030-0.966 0 0 0 0 0 0z"></path>
<path d="M22.857 1.159c-0.515-0.193-1.095 0.064-1.288 0.579 0 0 0 0 0 0l-1.996 5.473-2.060-5.408c-0.193-0.515-0.708-0.837-1.223-0.644s-0.837 0.708-0.644 1.223c0 0.064 0 0.064 0.064 0.064l2.962 7.92c0.193 0.515 0.773 0.773 1.288 0.579 0.258-0.129 0.451-0.322 0.579-0.579l2.962-7.92c0.129-0.515-0.064-1.095-0.644-1.288 0.064 0 0 0 0 0z"></path>
<path d="M31.421 1.095h-1.996c-0.515 0-0.966 0.451-0.966 0.966 0 0 0 0 0 0v7.92c0 0.579 0.451 0.966 0.966 0.966 0.579 0 0.966-0.451 0.966-0.966v-2.962h0.966c1.61 0.064 3.026-1.159 3.091-2.833 0.064-1.61-1.159-3.026-2.833-3.091 0 0-0.064 0-0.193 0v0zM31.421 5.022h-0.966v-1.932h0.966c0.515-0.064 1.030 0.386 1.095 0.901s-0.386 1.030-0.901 1.095c-0.064-0.064-0.129-0.064-0.193-0.064z"></path>
<path d="M28.394 13.070c-0.322 0-0.644 0.064-0.966 0.129 0 0-0.064-1.159-1.095-1.288-0.708-0.064-1.352 0.386-1.416 1.095 0 0 0 0 0 0l-0.386 4.443c0 0.064 0 0.064 0 0.129 0 0.129-0.129 0.258-0.258 0.258 0 0-0.064 0-0.064 0-2.704-0.579-5.408-0.837-8.113-0.901-2.769 0.064-5.473 0.386-8.113 0.901-0.129 0-0.258-0.064-0.322-0.193 0 0 0-0.064 0-0.064v-0.129l-1.095-11.783c-0.129-1.288 0.837-2.511 2.125-2.704 1.223-0.193 2.769-0.386 4.314-0.515v0c0 0 1.416-0.129 1.352-1.288s-1.416-1.159-1.61-1.159c-1.61 0.129-3.155 0.322-4.443 0.515-2.575 0.386-4.443 2.769-4.25 5.408v0l0.644 7.276c-0.322-0.064-0.644-0.129-0.966-0.129-2.060 0-3.799 1.674-3.799 3.734v0c0 5.28 3.348 8.692 4.829 9.98l-1.030 3.541c-0.193 0.644 0.193 1.352 0.837 1.545 0.129 0.064 0.258 0.064 0.322 0.064 0.579 0 1.030-0.386 1.223-0.901l0.966-3.412h17.706l0.966 3.412c0.193 0.515 0.644 0.901 1.223 0.901 0.129 0 0.258 0 0.386-0.064 0.644-0.193 1.030-0.901 0.837-1.545l-1.288-4.314c-0.193-0.515-0.644-0.901-1.223-0.901h-18.994c-0.773-0.579-1.417-1.288-1.996-2.060-1.417-1.738-2.189-3.928-2.189-6.245 0-0.708 0.579-1.288 1.223-1.288 0.708 0 1.288 0.579 1.288 1.223 0 0 0 0 0 0 0 0.064 0 0.129 0 0.129l0.064 0.708c0 0.773 0.386 1.545 1.030 2.060s1.481 0.773 2.254 0.579c2.575-0.386 5.151-0.708 7.726-0.708 2.575 0.064 5.151 0.322 7.662 0.837 1.481 0.258 2.962-0.708 3.219-2.189 0-0.129 0.064-0.258 0.064-0.451l0.064-0.708c0-0.064 0-0.129 0-0.129 0-0.708 0.579-1.288 1.223-1.288 0.708 0 1.288 0.579 1.288 1.223 0 0 0 0 0 0 0 1.545-0.386 3.091-1.095 4.443-0.322 0.644-0.064 1.352 0.579 1.674s1.352 0.064 1.674-0.579c0.901-1.738 1.352-3.67 1.352-5.602s-1.674-3.606-3.734-3.67z"></path>
</symbol>
<symbol id="icon-bussiness-lounge" viewBox="0 0 31 32">
<title>bussiness-lounge</title>
<path d="M27.191 13.873c-0.308 0-0.617 0.062-0.925 0.123 0 0-0.062-1.11-1.048-1.233-0.678-0.062-1.295 0.37-1.356 1.048 0 0 0 0 0 0l-0.37 4.254c0 0.062 0 0.062 0 0.123 0 0.123-0.123 0.247-0.247 0.247 0 0-0.062 0-0.062 0-5.118-1.171-10.482-1.171-15.599 0-0.062 0-0.123 0-0.185-0.062s-0.062-0.123-0.062-0.185v-0.123l-1.048-11.283c-0.123-1.233 0.802-2.405 2.035-2.59 1.171-0.185 2.651-0.37 4.131-0.493v0c0 0 1.356-0.123 1.295-1.233s-1.418-1.11-1.541-1.11c-1.541 0.123-3.021 0.308-4.254 0.493-2.528 0.37-4.316 2.651-4.069 5.179v0l0.617 6.967c-0.308-0.062-0.617-0.123-0.925-0.123-1.973 0-3.638 1.603-3.638 3.576v0c0.062 5.118 3.268 8.385 4.686 9.68l-0.986 3.391c-0.185 0.617 0.185 1.295 0.802 1.48 0.123 0.062 0.247 0.062 0.308 0.062 0.555 0 0.987-0.37 1.171-0.863l0.925-3.268h16.956l0.925 3.268c0.185 0.493 0.617 0.863 1.171 0.863 0.123 0 0.247 0 0.308-0.062 0.617-0.185 0.986-0.863 0.802-1.48l-1.233-4.131c-0.185-0.493-0.617-0.863-1.171-0.863h-18.127c-0.74-0.555-1.356-1.233-1.911-1.973-1.356-1.788-2.096-3.884-2.096-6.042 0-0.678 0.555-1.233 1.171-1.233 0.678 0 1.233 0.555 1.233 1.171 0 0 0 0 0 0 0 0.062 0 0.123 0 0.123l0.062 0.802c0.062 1.48 1.295 2.59 2.713 2.59 0.123 0 0.247 0 0.432-0.062 4.809-1.11 9.865-1.11 14.674 0 1.418 0.247 2.836-0.678 3.083-2.096 0-0.123 0.062-0.247 0.062-0.432l0.062-0.678c0-0.062 0-0.123 0-0.123 0.123-0.678 0.802-1.11 1.48-0.925 0.493 0.123 0.863 0.493 0.925 0.925 0 1.48-0.37 2.96-1.048 4.254-0.308 0.617-0.062 1.295 0.493 1.603s1.295 0.062 1.603-0.493c0 0 0 0 0 0 0.863-1.665 1.295-3.514 1.295-5.364 0.123-2.035-1.48-3.638-3.514-3.699z"></path>
<path d="M19.422 11.098c0-0.062 0-0.123 0-0.123 0-0.986 0-1.911 0-2.898 0-0.123-0.062-0.185-0.123-0.185 0 0 0 0 0 0-0.617-0.123-1.171-0.37-1.726-0.678-0.617-0.37-1.11-0.987-1.233-1.726-0.247-1.233 0.308-2.466 1.418-3.083 0.493-0.308 0.986-0.493 1.541-0.555 0.062 0 0.123-0.062 0.123-0.123 0-0.308 0-0.617 0-0.925 0.062-0.37 0.308-0.678 0.678-0.678 0.37-0.062 0.678 0.123 0.863 0.432 0.062 0.185 0.123 0.308 0.123 0.493s0 0.432 0 0.617c0 0.123 0.062 0.185 0.185 0.185 0.432 0.062 0.802 0.123 1.171 0.308 0.863 0.37 1.541 1.048 1.911 1.973 0.185 0.308 0.123 0.678-0.062 0.987-0.308 0.37-0.802 0.432-1.171 0.123-0.123-0.062-0.185-0.185-0.247-0.308-0.062-0.185-0.062-0.247-0.062-0.308-0.123-0.432-0.432-0.802-0.863-0.925-0.247-0.123-0.493-0.185-0.802-0.247 0 0.062 0 0.123 0 0.123 0 0.925 0 1.85 0 2.775 0 0.062 0.062 0.185 0.123 0.185 0 0 0 0 0 0 0.678 0.123 1.295 0.37 1.85 0.678 0.432 0.247 0.74 0.555 0.986 0.925 0.185 0.308 0.37 0.678 0.37 1.048 0.062 0.308 0.062 0.617 0 0.863-0.062 0.308-0.123 0.617-0.247 0.863-0.432 0.863-1.171 1.48-2.035 1.726-0.308 0.062-0.678 0.185-0.986 0.185-0.123 0-0.123 0.062-0.123 0.123 0 0.308 0 0.555 0 0.863-0.062 0.432-0.37 0.74-0.802 0.74s-0.802-0.308-0.863-0.74c0-0.308 0-0.617 0-0.925 0-0.123-0.062-0.185-0.185-0.185-0.74-0.062-1.418-0.432-1.973-0.986-0.493-0.493-0.863-1.171-1.048-1.85-0.062-0.432 0.247-0.863 0.678-0.925 0 0 0 0 0.062 0 0.432-0.062 0.802 0.185 0.925 0.617 0.185 0.678 0.74 1.233 1.418 1.418l0.123 0.123zM21.148 9.742v1.356c0 0.062 0 0.185 0.123 0.123 0.493-0.062 0.986-0.247 1.356-0.555 0.493-0.432 0.555-1.233 0.062-1.726-0.123-0.123-0.185-0.185-0.308-0.247-0.308-0.123-0.678-0.247-0.986-0.37-0.185-0.062-0.185-0.062-0.185 0.123l-0.062 1.295zM19.484 6.104c0 0 0-0.062 0-0.062v-2.466c0-0.123-0.062-0.123-0.123-0.123-0.308 0.062-0.617 0.185-0.863 0.37-0.185 0.123-0.308 0.308-0.432 0.493-0.247 0.432-0.123 1.048 0.308 1.356 0.308 0.185 0.678 0.37 0.986 0.432h0.123z"></path>
</symbol>
<symbol id="icon-fast-track" viewBox="0 0 43 32">
<title>fast-track</title>
<path d="M16 32c-3.621 0-7.177-1.251-10.008-3.556-0.593-0.461-0.658-1.317-0.198-1.844s1.317-0.658 1.844-0.198v0c2.37 1.909 5.333 2.963 8.362 2.963 7.375 0 13.366-5.992 13.366-13.3 0-7.375-5.992-13.366-13.3-13.366-7.44 0-13.432 5.926-13.432 13.3 0 1.712 0.329 3.358 0.922 4.938 0.263 0.658-0.066 1.449-0.724 1.712s-1.449-0.066-1.712-0.724c-3.292-8.23 0.724-17.514 8.955-20.807s17.514 0.724 20.807 8.955c3.292 8.23-0.724 17.514-8.955 20.807-1.844 0.724-3.885 1.119-5.926 1.119v0z"></path>
<path d="M21.070 21.794c-0.263 0-0.593-0.066-0.79-0.263l-5.202-3.885c-0.329-0.263-0.527-0.658-0.527-1.053v-9.877c0-0.724 0.593-1.317 1.317-1.317s1.317 0.593 1.317 1.317v9.218l4.675 3.49c0.593 0.461 0.724 1.251 0.263 1.844-0.263 0.329-0.658 0.527-1.053 0.527v0z"></path>
<path d="M41.35 18.041h-5.992c-0.724 0-1.317-0.593-1.317-1.317s0.593-1.317 1.317-1.317h5.992c0.724 0 1.317 0.593 1.317 1.317s-0.593 1.317-1.317 1.317z"></path>
<path d="M39.045 12.708h-4.741c-0.724 0-1.317-0.593-1.317-1.317s0.593-1.317 1.317-1.317h4.741c0.724 0 1.317 0.593 1.317 1.317s-0.593 1.317-1.317 1.317z"></path>
<path d="M36.938 23.111h-3.292c-0.724 0-1.317-0.593-1.317-1.317s0.593-1.317 1.317-1.317h3.292c0.724 0 1.317 0.593 1.317 1.317s-0.593 1.317-1.317 1.317z"></path>
</symbol>
</defs>
</svg>
