<!-- Generated by IcoMoon.io -->
<svg version="1.1" xmlns="http://www.w3.org/2000/svg" width="31" height="32" viewBox="0 0 31 32">
<title>tickets</title>
<path d="M24.015 18.378c-0.411-1.996 0.528-3.993 2.349-4.932v0c-0.117-0.587-0.235-1.116-0.352-1.703-0.235-0.705-0.822-0.47-1.35-0.352l-3.699 0.822c-0.235 0.352-0.411 0.763-0.705 1.057-0.47 0.587-1.35 0.059-1.468-0.587v0l-15.266 3.347c-0.294 0.059-0.705 0.117-0.939 0.352-0.411 0.47 0.117 1.703 0.235 2.231v0c2.466 0.117 4.404 2.172 4.286 4.639-0.059 1.644-0.998 3.112-2.466 3.817v0l0.528 2.349 16.44-3.582c0.235-0.352 0.411-0.763 0.705-1.057 0.47-0.587 1.35-0.059 1.468 0.587v0l4.932-1.057-0.528-2.349c-2.055-0.176-3.758-1.585-4.169-3.582v0zM19.611 2.877c-0.587-0.763-1.879 0.646-2.29 0.998l-2.055 1.527c-0.059 0.411-0.117 0.822-0.176 1.233-0.176 0.763-1.174 0.587-1.585 0.117v0l-8.69 6.694 16.206-3.523c-1.174-1.292-1.468-3.229-0.763-4.815 0.117-0.294 0.47-0.646 0.352-0.939-0.059-0.117-0.176-0.235-0.294-0.352l-0.705-0.939zM31.354 25.894l-27.89 6.048-0.705-3.171c-0.294-1.057-0.528-2.172-0.705-3.288 0.822-0.176 1.468-0.176 2.055-0.822 0.528-0.528 0.763-1.292 0.646-2.055-0.176-0.763-0.705-1.35-1.468-1.585-0.822-0.294-1.409 0-2.172 0.117-0.176-1.116-0.47-2.231-0.822-3.288-0.352-1.116-0.528-2.349 0.059-3.347 0.411-0.646 0.939-1.174 1.585-1.585l15.677-12.154c0.411-0.411 0.998-0.705 1.585-0.763 0.939-0.059 1.703 0.822 2.29 1.585l1.409 1.82c0.176 0.235 0.294 0.47 0.352 0.705 0.117 0.646-0.528 1.174-0.881 1.761-0.587 1.116-0.117 2.466 0.998 2.995 0.176 0.059 0.294 0.117 0.47 0.176 0.646 0.059 1.292 0 1.938-0.117s1.292 0.059 1.82 0.47c0.235 0.352 0.411 0.763 0.47 1.174 0.352 1.527 0.646 2.995 0.939 4.521-1.292-0.176-2.466 0.705-2.701 1.938-0.176 1.292 0.705 2.466 1.938 2.701 0.587 0.117 1.174-0.059 1.644-0.352 0.528 2.172 0.998 4.345 1.468 6.517zM15.736 7.868c-0.47 0.352-0.587 1.057-0.235 1.585 0.352 0.47 1.057 0.587 1.585 0.235s0.587-1.057 0.235-1.585c0 0 0 0 0 0-0.352-0.528-1.057-0.646-1.585-0.235zM21.725 21.138c-1.468 0.294-0.881 2.584 0.587 2.172 0.587-0.176 0.881-0.822 0.705-1.409-0.176-0.528-0.705-0.822-1.292-0.763zM21.020 17.908c-1.468 0.294-0.881 2.584 0.587 2.172 0.587-0.176 0.881-0.822 0.705-1.409s-0.705-0.881-1.292-0.763zM21.666 15.442c0.294 1.468-1.996 1.879-2.172 0.411-0.059-0.587 0.411-1.174 0.998-1.233 0.528-0.059 0.998 0.294 1.174 0.822z"></path>
</svg>
