<!-- Generated by IcoMoon.io -->
<svg version="1.1" xmlns="http://www.w3.org/2000/svg" width="73" height="32" viewBox="0 0 73 32">
<title>transfer</title>
<path d="M57.722 22.076c-1.215 0-2.025 0.81-2.025 2.025s0.81 2.025 2.025 2.025 2.025-0.81 2.025-2.025-1.013-2.025-2.025-2.025zM15.797 22.076c-1.215 0-2.025 0.81-2.025 2.025s0.81 2.025 2.025 2.025 2.025-0.81 2.025-2.025-0.81-2.025-2.025-2.025zM3.038 15.392v-1.215c0-1.013 0.405-2.025 0.81-2.835h1.823v2.025c0 1.215-0.81 2.025-2.025 2.025h-0.608zM3.038 22.684v-4.456h0.608c2.835 0 5.063-2.228 5.063-4.861 0 0 0 0 0 0v-2.025h46.987l6.278 0.81c0.608 4.253 4.051 7.291 8.304 7.291v3.038h-4.861c-0.81-4.253-4.861-6.886-8.911-6.278-3.24 0.608-5.671 3.038-6.278 6.278h-26.734c-0.81-4.253-4.861-6.886-8.911-6.278-3.24 0.608-5.671 3.038-6.278 6.278l-5.266 0.203zM15.797 28.759c-2.633 0-4.658-2.025-4.658-4.658s2.025-4.658 4.658-4.658c2.633 0 4.658 2.025 4.658 4.658 0.203 2.633-2.025 4.658-4.658 4.658v0zM57.722 28.759c-2.633 0-4.658-2.025-4.658-4.658s2.025-4.658 4.658-4.658c2.633 0 4.658 2.025 4.658 4.658s-2.025 4.658-4.658 4.658zM65.013 12.759c2.025 0.405 3.848 1.823 4.658 3.848-2.228-0.203-4.051-1.62-4.658-3.848zM42.127 4.658l7.291 3.646h-13.165v-5.266c2.025 0 4.051 0.608 5.873 1.62v0zM33.215 3.038v5.468h-12.152l4.253-5.468h7.899zM20.051 4.051l0.81-0.405-3.646 4.658h-8.101l10.937-4.253zM5.063 7.089c-3.038 1.013-5.063 4.051-5.063 7.291v10.127c0 0.81 0.608 1.418 1.418 1.418h6.886c0.405 1.418 1.013 2.835 2.228 3.848 3.038 2.835 7.696 2.835 10.734 0 1.013-1.013 1.823-2.43 2.228-3.848h26.734c0.405 1.418 1.013 2.835 2.228 3.848 3.038 3.038 7.899 2.835 10.937-0.203 1.013-1.013 1.62-2.43 2.025-3.646h6.481c0.81 0 1.418-0.608 1.418-1.418v-5.671c0-4.658-3.443-8.506-7.899-9.114l-9.114-1.418-12.759-6.278c-2.835-1.418-5.873-2.025-8.911-2.025h-8.506c-2.43 0-4.861 0.405-7.291 1.418l-13.772 5.671zM57.722 22.278c-1.215 0-2.025 0.81-2.025 2.025s0.81 2.025 2.025 2.025 2.025-0.81 2.025-2.025-1.013-2.025-2.025-2.025zM57.722 22.278c-1.215 0-2.025 0.81-2.025 2.025s0.81 2.025 2.025 2.025 2.025-0.81 2.025-2.025-1.013-2.025-2.025-2.025z"></path>
<path d="M31.595 15.595h9.924c0.81 0 1.418 0.608 1.418 1.418s-0.608 1.418-1.418 1.418v0h-9.924c-0.81 0-1.418-0.608-1.418-1.418s0.608-1.418 1.418-1.418z"></path>
</svg>
