<!-- Generated by IcoMoon.io -->
<svg version="1.1" xmlns="http://www.w3.org/2000/svg" width="35" height="32" viewBox="0 0 35 32">
<title>vip-lounge</title>
<path d="M25.497 1.095c-0.515 0-0.966 0.451-0.966 0.966 0 0 0 0 0 0v7.92c0.064 0.515 0.515 0.966 1.095 0.901 0.515-0.064 0.901-0.451 0.901-0.901v-7.92c-0.064-0.515-0.451-0.966-1.030-0.966 0 0 0 0 0 0z"></path>
<path d="M22.857 1.159c-0.515-0.193-1.095 0.064-1.288 0.579 0 0 0 0 0 0l-1.996 5.473-2.060-5.408c-0.193-0.515-0.708-0.837-1.223-0.644s-0.837 0.708-0.644 1.223c0 0.064 0 0.064 0.064 0.064l2.962 7.92c0.193 0.515 0.773 0.773 1.288 0.579 0.258-0.129 0.451-0.322 0.579-0.579l2.962-7.92c0.129-0.515-0.064-1.095-0.644-1.288 0.064 0 0 0 0 0z"></path>
<path d="M31.421 1.095h-1.996c-0.515 0-0.966 0.451-0.966 0.966 0 0 0 0 0 0v7.92c0 0.579 0.451 0.966 0.966 0.966 0.579 0 0.966-0.451 0.966-0.966v-2.962h0.966c1.61 0.064 3.026-1.159 3.091-2.833 0.064-1.61-1.159-3.026-2.833-3.091 0 0-0.064 0-0.193 0v0zM31.421 5.022h-0.966v-1.932h0.966c0.515-0.064 1.030 0.386 1.095 0.901s-0.386 1.030-0.901 1.095c-0.064-0.064-0.129-0.064-0.193-0.064z"></path>
<path d="M28.394 13.070c-0.322 0-0.644 0.064-0.966 0.129 0 0-0.064-1.159-1.095-1.288-0.708-0.064-1.352 0.386-1.416 1.095 0 0 0 0 0 0l-0.386 4.443c0 0.064 0 0.064 0 0.129 0 0.129-0.129 0.258-0.258 0.258 0 0-0.064 0-0.064 0-2.704-0.579-5.408-0.837-8.113-0.901-2.769 0.064-5.473 0.386-8.113 0.901-0.129 0-0.258-0.064-0.322-0.193 0 0 0-0.064 0-0.064v-0.129l-1.095-11.783c-0.129-1.288 0.837-2.511 2.125-2.704 1.223-0.193 2.769-0.386 4.314-0.515v0c0 0 1.416-0.129 1.352-1.288s-1.416-1.159-1.61-1.159c-1.61 0.129-3.155 0.322-4.443 0.515-2.575 0.386-4.443 2.769-4.25 5.408v0l0.644 7.276c-0.322-0.064-0.644-0.129-0.966-0.129-2.060 0-3.799 1.674-3.799 3.734v0c0 5.28 3.348 8.692 4.829 9.98l-1.030 3.541c-0.193 0.644 0.193 1.352 0.837 1.545 0.129 0.064 0.258 0.064 0.322 0.064 0.579 0 1.030-0.386 1.223-0.901l0.966-3.412h17.706l0.966 3.412c0.193 0.515 0.644 0.901 1.223 0.901 0.129 0 0.258 0 0.386-0.064 0.644-0.193 1.030-0.901 0.837-1.545l-1.288-4.314c-0.193-0.515-0.644-0.901-1.223-0.901h-18.994c-0.773-0.579-1.417-1.288-1.996-2.060-1.417-1.738-2.189-3.928-2.189-6.245 0-0.708 0.579-1.288 1.223-1.288 0.708 0 1.288 0.579 1.288 1.223 0 0 0 0 0 0 0 0.064 0 0.129 0 0.129l0.064 0.708c0 0.773 0.386 1.545 1.030 2.060s1.481 0.773 2.254 0.579c2.575-0.386 5.151-0.708 7.726-0.708 2.575 0.064 5.151 0.322 7.662 0.837 1.481 0.258 2.962-0.708 3.219-2.189 0-0.129 0.064-0.258 0.064-0.451l0.064-0.708c0-0.064 0-0.129 0-0.129 0-0.708 0.579-1.288 1.223-1.288 0.708 0 1.288 0.579 1.288 1.223 0 0 0 0 0 0 0 1.545-0.386 3.091-1.095 4.443-0.322 0.644-0.064 1.352 0.579 1.674s1.352 0.064 1.674-0.579c0.901-1.738 1.352-3.67 1.352-5.602s-1.674-3.606-3.734-3.67z"></path>
</svg>
